<?xml version="1.0" encoding="utf-8"?>
<!-- Generator: Adobe Illustrator 23.1.1, SVG Export Plug-In . SVG Version: 6.00 Build 0)  -->
<svg version="1.1" id="Layer_1" xmlns="http://www.w3.org/2000/svg" xmlns:xlink="http://www.w3.org/1999/xlink" x="0px" y="0px"
	 viewBox="0 0 1366 768" style="enable-background:new 0 0 1366 768;" xml:space="preserve">
<style type="text/css">
	.st0{fill:#93278F;}
</style>
<g>
	<path class="st0" d="M102.56,468.21c-1.99-0.94-4.17-1.91-6.55-2.9c-2.38-0.99-4.35-1.86-5.88-2.61c-5.91-2.88-9.87-5.75-11.88-8.6
		c-2.01-2.85-3.02-6.09-3.02-9.72c0-3.56,0.82-6.61,2.46-9.13c1.64-2.52,3.48-4.5,5.51-5.94c3.08-2.13,6.49-3.67,10.24-4.64
		c3.75-0.96,7.41-1.45,10.99-1.45c3.28,0,6.26,0.11,8.94,0.33c2.68,0.22,4.47,0.41,5.36,0.56l-0.45-5.29
		c-0.4-0.05-2.07-0.16-5.03-0.33c-2.96-0.17-5.87-0.26-8.75-0.26c-4.57,0-9.06,0.63-13.48,1.9c-4.42,1.27-8.19,3.02-11.32,5.25
		c-3.08,2.19-5.56,4.84-7.45,7.97c-1.89,3.13-2.83,6.8-2.83,11.02c0,5.31,1.53,9.77,4.58,13.37c3.05,3.6,7.68,6.89,13.89,9.87
		c1.44,0.7,3.5,1.59,6.18,2.68c2.68,1.09,4.77,2.04,6.26,2.83c6.21,3.18,10.35,6.48,12.44,9.91c2.09,3.43,3.13,6.83,3.13,10.2
		c0,4.01-0.88,7.39-2.64,10.13c-1.76,2.75-4.41,5.13-7.93,7.16c-2.98,1.68-6.38,2.92-10.2,3.71c-3.82,0.79-7.97,1.19-12.44,1.19
		c-4.07,0-7.46-0.14-10.17-0.41c-2.71-0.27-4.46-0.46-5.25-0.56l0.3,5.29c0.79,0.1,2.71,0.24,5.73,0.41
		c3.03,0.17,6.03,0.26,9.01,0.26c4.77,0,9.45-0.47,14.04-1.42c4.59-0.94,8.78-2.51,12.55-4.69c3.92-2.28,7.04-5.09,9.35-8.42
		c2.31-3.33,3.46-7.55,3.46-12.66c0-4.96-1.6-9.61-4.8-13.93C113.69,474.99,108.91,471.29,102.56,468.21z"/>
	<path class="st0" d="M181.12,451.29c-2.83-2.63-6.49-4.6-10.97-5.91c-4.48-1.31-9.7-1.97-15.67-1.97c-2.88,0-5.07,0.03-6.56,0.08
		c-1.49,0.05-2.61,0.1-3.36,0.15l-0.6,4.99c1.54-0.05,3.2-0.11,4.96-0.19c1.77-0.07,3.79-0.11,6.08-0.11
		c3.98,0,7.45,0.33,10.41,1.01c2.96,0.67,5.53,1.63,7.72,2.87c3.48,1.99,6.1,4.58,7.87,7.78c1.77,3.2,2.8,7.44,3.1,12.7
		c-10.38,1.04-17.47,1.97-21.26,2.79c-3.8,0.82-7.46,1.92-10.99,3.31c-5.46,2.19-9.53,4.88-12.21,8.08
		c-2.68,3.2-4.02,6.92-4.02,11.13c0,3.87,0.99,7.35,2.98,10.43c1.99,3.08,4.96,5.59,8.94,7.52c3.03,1.49,6.57,2.53,10.61,3.13
		c4.05,0.6,7.98,0.89,11.81,0.89c3.47,0,7.21-0.14,11.21-0.41c4-0.27,6.81-0.43,8.45-0.49c0-1.74,0-7.43,0-17.08
		c0-9.65,0-18.32,0-26.01c0-6.5-0.71-11.58-2.13-15.25C186.08,457.07,183.95,453.92,181.12,451.29z M184.11,486.96
		c0,3.17,0,6.37,0,9.59c0,3.92-0.01,7.74-0.04,11.49c-0.03,3.74-0.04,6.06-0.04,6.95c-2.14,0.2-4.12,0.33-5.93,0.41
		c-1.82,0.07-3.17,0.11-4.07,0.11c-4.43,0-8.34-0.17-11.75-0.52c-3.41-0.35-6.25-0.94-8.54-1.78c-4.18-1.54-7.3-3.56-9.36-6.06
		c-2.06-2.5-3.1-5.66-3.1-9.48c0-2.97,1.03-5.76,3.1-8.36c2.06-2.6,5.31-4.77,9.74-6.5c3.88-1.54,8.78-2.76,14.7-3.68
		s11.02-1.52,15.29-1.82C184.11,480.57,184.11,483.79,184.11,486.96z"/>
	<path class="st0" d="M271.03,491.45c0-2.83,0.01-6.52,0.04-11.06c0.02-4.54,0.04-9.94,0.04-16.2c0-6.95-1.89-12.35-5.66-16.2
		c-3.77-3.85-8.56-5.77-14.37-5.77c-4.72,0-9.73,1.14-15.04,3.43c-5.31,2.29-10.55,5.02-15.72,8.19l-0.07-0.15l0.07-9.83h-5.73
		c0,7.89,0.02,15.32,0.07,22.27c0.05,6.95,0.07,13.03,0.07,18.25c0,11.32-0.03,19.85-0.07,25.58c-0.05,5.74-0.07,8.78-0.07,9.12
		h5.73c0-0.4-0.03-4.67-0.07-12.81c-0.05-8.14-0.07-15.09-0.07-20.85c0-4.42,0.01-9.84,0.04-16.27c0.02-6.43,0.04-9.92,0.04-10.46
		c4.17-2.68,9.06-5.26,14.67-7.75c5.61-2.48,10.15-3.72,13.63-3.72c5.96,0,10.23,1.49,12.81,4.47c2.58,2.98,3.95,8.42,4.1,16.31
		c0.05,2.33,0.09,6.08,0.11,11.25c0.02,5.17,0.04,9.04,0.04,11.62c0,1.84-0.03,6.65-0.07,14.45c-0.05,7.8-0.07,12.39-0.07,13.78
		h5.74c0-0.35-0.03-3.91-0.07-10.69C271.06,501.61,271.03,495.96,271.03,491.45z"/>
	<path class="st0" d="M349.01,409.89h-5.73l0.15,34.33c-6.7,0-12.81,0.56-18.32,1.68c-5.51,1.12-10.2,2.64-14.08,4.58
		c-6.55,3.28-11.66,7.8-15.31,13.55c-3.65,5.76-5.47,12.41-5.47,19.96c0,6.46,1.7,12.24,5.1,17.35c3.4,5.12,8.13,9.26,14.19,12.44
		c4.67,2.48,9.71,4.2,15.12,5.14c5.41,0.94,11.54,1.42,18.4,1.42c0.89,0,2.04-0.01,3.43-0.04c1.39-0.03,2.23-0.04,2.53-0.04
		c0-6.11-0.03-13.39-0.07-21.86c-0.05-8.46-0.07-17.94-0.07-28.41c0-13.26,0.02-26.34,0.07-39.25
		C348.99,417.84,349.01,410.88,349.01,409.89z M343.42,458.61c0,4.17,0,7.26,0,9.25c0,14.27-0.01,25.73-0.04,34.37
		c-0.03,8.65-0.04,13.2-0.04,13.65c-0.35,0-0.66,0-0.93,0c-0.27,0-0.56,0-0.86,0c-4.77,0-9.65-0.4-14.64-1.19
		c-4.99-0.79-9.55-2.26-13.67-4.4c-5.61-2.93-9.91-6.65-12.89-11.15c-2.98-4.5-4.47-9.63-4.47-15.4c0-7.16,1.79-13.31,5.36-18.45
		c3.57-5.15,8.42-9.06,14.52-11.74c3.67-1.64,7.78-2.86,12.33-3.65c4.54-0.79,9.65-1.19,15.31-1.19
		C343.42,451.13,343.42,454.44,343.42,458.61z"/>
	<path class="st0" d="M398.84,447.58c-6.7,2.83-12.56,5.83-17.58,9.01l-0.07-0.08l0.07-12.66h-5.73c0,7.35,0.02,15.14,0.07,23.39
		c0.05,8.24,0.07,14.67,0.07,19.29c0,11.42-0.03,19.49-0.07,24.21c-0.05,4.72-0.07,7.5-0.07,8.34h5.73c0-0.89-0.03-5.36-0.07-13.41
		c-0.05-8.04-0.07-15-0.07-20.85c0-3.82,0.01-8.43,0.04-13.82c0.02-5.39,0.04-8.35,0.04-8.9c6.8-4.12,13.34-7.47,19.63-10.05
		c6.28-2.58,10.89-4.27,13.82-5.06l-1.27-4.92C410.38,442.91,405.54,444.75,398.84,447.58z"/>
	<path class="st0" d="M466.9,451.29c-2.83-2.63-6.49-4.6-10.97-5.91c-4.48-1.31-9.7-1.97-15.67-1.97c-2.88,0-5.07,0.03-6.56,0.08
		c-1.49,0.05-2.61,0.1-3.36,0.15l-0.6,4.99c1.54-0.05,3.2-0.11,4.96-0.19c1.77-0.07,3.79-0.11,6.08-0.11
		c3.98,0,7.45,0.33,10.41,1.01c2.96,0.67,5.53,1.63,7.72,2.87c3.48,1.99,6.1,4.58,7.87,7.78c1.77,3.2,2.8,7.44,3.1,12.7
		c-10.38,1.04-17.47,1.97-21.26,2.79c-3.8,0.82-7.46,1.92-10.99,3.31c-5.46,2.19-9.53,4.88-12.21,8.08
		c-2.68,3.2-4.02,6.92-4.02,11.13c0,3.87,0.99,7.35,2.98,10.43c1.99,3.08,4.96,5.59,8.94,7.52c3.03,1.49,6.57,2.53,10.61,3.13
		c4.05,0.6,7.98,0.89,11.81,0.89c3.47,0,7.21-0.14,11.21-0.41c4-0.27,6.81-0.43,8.45-0.49c0-1.74,0-7.43,0-17.08
		c0-9.65,0-18.32,0-26.01c0-6.5-0.71-11.58-2.13-15.25C471.86,457.07,469.73,453.92,466.9,451.29z M469.89,486.96
		c0,3.17,0,6.37,0,9.59c0,3.92-0.01,7.74-0.04,11.49c-0.03,3.74-0.04,6.06-0.04,6.95c-2.14,0.2-4.12,0.33-5.93,0.41
		c-1.82,0.07-3.17,0.11-4.07,0.11c-4.43,0-8.34-0.17-11.75-0.52c-3.41-0.35-6.25-0.94-8.54-1.78c-4.18-1.54-7.3-3.56-9.36-6.06
		c-2.06-2.5-3.1-5.66-3.1-9.48c0-2.97,1.03-5.76,3.1-8.36c2.06-2.6,5.31-4.77,9.74-6.5c3.88-1.54,8.78-2.76,14.7-3.68
		s11.02-1.52,15.29-1.82C469.89,480.57,469.89,483.79,469.89,486.96z"/>
	<path class="st0" d="M938.15,495.99c4.12-6.45,7.27-11.47,9.46-15.04c2.83-4.57,6.14-9.84,9.94-15.83
		c3.38-5.32,6.09-9.64,8.16-12.98c-1.96-1.61-4.12-2.86-6.48-3.74c-3.08-1.14-6.28-1.71-9.61-1.71c-3.87,0-7.31,0.57-10.32,1.71
		c-3,1.14-5.95,3.25-8.83,6.33c-3.13,3.38-5.47,7.25-7.04,11.62c-1.56,4.37-2.35,9.43-2.35,15.19c0,6.41,0.97,11.93,2.91,16.57
		c1.56,3.74,3.69,7.04,6.37,9.92C932.21,505.24,934.79,501.24,938.15,495.99z"/>
	<path class="st0" d="M485,408v135h637V408H485z M546.35,505.9c-2.31,3.33-5.43,6.13-9.35,8.42c-3.77,2.19-7.96,3.75-12.55,4.69
		c-4.59,0.94-9.27,1.42-14.04,1.42c-2.98,0-5.98-0.09-9.01-0.26c-3.03-0.17-4.94-0.31-5.73-0.41l-0.3-5.29
		c0.79,0.1,2.54,0.29,5.25,0.56c2.71,0.27,6.09,0.41,10.17,0.41c4.47,0,8.61-0.4,12.44-1.19c3.82-0.79,7.22-2.03,10.2-3.71
		c3.52-2.03,6.17-4.42,7.93-7.16c1.76-2.75,2.64-6.12,2.64-10.13c0-3.38-1.04-6.78-3.13-10.2c-2.09-3.43-6.23-6.73-12.44-9.91
		c-1.49-0.79-3.58-1.74-6.26-2.83c-2.68-1.09-4.74-1.99-6.18-2.68c-6.21-2.98-10.84-6.27-13.89-9.87c-3.05-3.6-4.58-8.06-4.58-13.37
		c0-4.22,0.94-7.9,2.83-11.02c1.89-3.13,4.37-5.78,7.45-7.97c3.13-2.23,6.9-3.99,11.32-5.25c4.42-1.27,8.91-1.9,13.48-1.9
		c2.88,0,5.8,0.09,8.75,0.26c2.95,0.17,4.63,0.29,5.03,0.33l0.45,5.29c-0.89-0.15-2.68-0.33-5.36-0.56
		c-2.68-0.22-5.66-0.33-8.94-0.33c-3.57,0-7.24,0.48-10.99,1.45c-3.75,0.96-7.16,2.51-10.24,4.64c-2.04,1.44-3.87,3.42-5.51,5.94
		c-1.64,2.52-2.46,5.57-2.46,9.13c0,3.62,1.01,6.87,3.02,9.72c2.01,2.86,5.97,5.72,11.88,8.6c1.54,0.74,3.5,1.61,5.88,2.61
		c2.38,0.99,4.57,1.96,6.55,2.9c6.35,3.08,11.13,6.78,14.34,11.1c3.2,4.32,4.8,8.96,4.8,13.93
		C549.81,498.35,548.65,502.57,546.35,505.9z M607.75,448.47h-27.48c0,1.49-0.03,4.49-0.07,9.01c-0.05,4.52-0.07,9.01-0.07,13.48
		c0,5.02,0.01,8.94,0.04,11.77c0.02,2.83,0.04,5.61,0.04,8.34c0,8.19,1.65,14.16,4.95,17.91c3.3,3.75,9.25,5.62,17.84,5.62
		c0.69,0,1.44-0.01,2.23-0.04c0.79-0.02,1.44-0.04,1.94-0.04l-0.45,4.62c-0.55,0-1.34,0.02-2.38,0.08c-1.04,0.05-2.01,0.07-2.9,0.07
		c-8.89,0-15.58-2.17-20.07-6.52c-4.49-4.34-6.74-10.96-6.74-19.85c0-6.16,0.02-13.34,0.07-21.56c0.05-8.22,0.07-15.85,0.07-22.9
		h-12.59V444h12.81v-17.43h5.29V444h27.48V448.47z M683.46,498.15c-1.81,4.92-4.61,9.31-8.38,13.18c-3.23,3.23-6.72,5.59-10.46,7.08
		c-3.75,1.49-7.88,2.23-12.4,2.23c-4.52,0-8.7-0.76-12.55-2.27c-3.85-1.51-7.34-3.86-10.46-7.04c-3.62-3.67-6.38-8.02-8.27-13.03
		c-1.89-5.01-2.83-10.6-2.83-16.76c0-6.06,0.82-11.44,2.46-16.16c1.64-4.72,4.15-8.94,7.52-12.66c3.38-3.72,7.06-6.41,11.06-8.04
		c4-1.64,8.35-2.46,13.07-2.46c4.67,0,9,0.84,13,2.53c4,1.69,7.53,4.22,10.61,7.6c3.62,3.97,6.26,8.35,7.9,13.15
		c1.64,4.79,2.46,10.12,2.46,15.98C686.18,487.67,685.28,493.23,683.46,498.15z M731.13,452.05c-6.28,2.58-12.82,5.93-19.62,10.05
		c0,0.55-0.01,3.51-0.04,8.9c-0.03,5.39-0.04,9.99-0.04,13.82c0,5.86,0.02,12.81,0.07,20.85c0.05,8.04,0.07,12.51,0.07,13.41h-5.73
		c0-0.84,0.02-3.62,0.07-8.34c0.05-4.72,0.07-12.79,0.07-24.21c0-4.62-0.03-11.05-0.07-19.29c-0.05-8.24-0.07-16.04-0.07-23.39h5.73
		l-0.07,12.66l0.07,0.08c5.01-3.18,10.87-6.18,17.58-9.01s11.54-4.67,14.52-5.51l1.27,4.92
		C742.02,447.78,737.41,449.46,731.13,452.05z M793.02,507.5c-1.51,2.61-3.74,4.9-6.67,6.89c-2.53,1.69-5.71,2.96-9.53,3.8
		c-3.82,0.84-8.12,1.27-12.88,1.27c-1.69,0-3.67-0.06-5.96-0.19c-2.29-0.12-3.92-0.24-4.92-0.34l-0.15-4.92
		c1.04,0.1,2.61,0.21,4.69,0.33c2.09,0.12,4.42,0.19,7,0.19c3.03,0,6.21-0.26,9.53-0.78c3.33-0.52,5.71-1.18,7.15-1.97
		c2.68-1.44,4.75-3.1,6.22-4.99c1.46-1.89,2.2-4.34,2.2-7.37c0-2.33-0.67-4.51-2.01-6.52s-3.28-3.81-5.81-5.4
		c-1.79-1.14-4.52-2.54-8.19-4.21c-3.67-1.66-6.63-3.17-8.86-4.51c-3.03-1.79-5.45-4.03-7.26-6.74c-1.81-2.71-2.72-5.77-2.72-9.2
		c0-3.38,0.82-6.36,2.46-8.94c1.64-2.58,4.12-4.82,7.45-6.7c1.99-1.14,4.58-2.05,7.78-2.72c3.2-0.67,6.89-1,11.06-1
		c2.58,0,4.74,0.04,6.48,0.11c1.74,0.07,2.9,0.14,3.5,0.19l0.3,4.77c-1.04-0.05-2.54-0.1-4.51-0.15c-1.96-0.05-4.13-0.07-6.52-0.07
		c-3.38,0-6.34,0.24-8.9,0.71c-2.56,0.47-4.83,1.28-6.82,2.42c-2.23,1.34-3.91,2.93-5.03,4.77c-1.12,1.84-1.68,3.87-1.68,6.11
		c0,2.38,0.65,4.58,1.94,6.59s3.48,3.91,6.55,5.7c1.99,1.14,4.51,2.41,7.56,3.8c3.05,1.39,5.8,2.78,8.23,4.17
		c3.77,2.19,6.48,4.61,8.12,7.26c1.64,2.66,2.46,5.6,2.46,8.83C795.29,501.95,794.54,504.89,793.02,507.5z M851.82,448.47h-27.48
		c0,1.49-0.03,4.49-0.07,9.01c-0.05,4.52-0.07,9.01-0.07,13.48c0,5.02,0.01,8.94,0.04,11.77c0.02,2.83,0.04,5.61,0.04,8.34
		c0,8.19,1.65,14.16,4.95,17.91c3.3,3.75,9.25,5.62,17.84,5.62c0.69,0,1.44-0.01,2.23-0.04c0.79-0.02,1.44-0.04,1.94-0.04
		l-0.45,4.62c-0.55,0-1.34,0.02-2.38,0.08c-1.04,0.05-2.01,0.07-2.91,0.07c-8.89,0-15.58-2.17-20.07-6.52
		c-4.49-4.34-6.74-10.96-6.74-19.85c0-6.16,0.02-13.34,0.07-21.56c0.05-8.22,0.08-15.85,0.08-22.9h-12.59V444h12.81v-17.43h5.29V444
		h27.48V448.47z M894.32,452.05c-6.28,2.58-12.82,5.93-19.62,10.05c0,0.55-0.01,3.51-0.04,8.9c-0.03,5.39-0.04,9.99-0.04,13.82
		c0,5.86,0.02,12.81,0.07,20.85c0.05,8.04,0.07,12.51,0.07,13.41h-5.73c0-0.84,0.02-3.62,0.07-8.34c0.05-4.72,0.07-12.79,0.07-24.21
		c0-4.62-0.03-11.05-0.07-19.29c-0.05-8.24-0.07-16.04-0.07-23.39h5.73l-0.07,12.66l0.07,0.08c5.01-3.18,10.87-6.18,17.58-9.01
		s11.54-4.67,14.52-5.51l1.27,4.92C905.2,447.78,900.6,449.46,894.32,452.05z M980.79,498.15c-1.81,4.92-4.61,9.31-8.38,13.18
		c-3.13,3.18-6.55,5.52-10.28,7.04c-3.72,1.51-7.92,2.27-12.59,2.27c-3.23,0-6.44-0.44-9.64-1.3c-3.2-0.87-6.25-2.32-9.12-4.36
		c-1.94,3.08-3.6,5.78-4.99,8.12c-1.39,2.33-2.23,3.72-2.53,4.17l-3.65-2.61c0.25-0.3,1.05-1.48,2.42-3.54
		c1.36-2.06,3.21-4.95,5.55-8.68c-4.17-4.07-7.24-8.68-9.2-13.82c-1.96-5.14-2.94-10.84-2.94-17.09c0-5.96,0.82-11.32,2.46-16.09
		c1.64-4.77,4.2-9.06,7.67-12.88c3.13-3.47,6.7-6.07,10.73-7.78c4.02-1.71,8.44-2.57,13.26-2.57c3.48,0,6.82,0.48,10.02,1.45
		c3.2,0.97,6.12,2.4,8.75,4.28c0.84-1.39,1.91-3.08,3.2-5.07c1.29-1.99,2.61-4.12,3.95-6.41l3.72,2.53
		c-1.19,1.79-2.42,3.67-3.69,5.66c-1.27,1.99-2.57,4-3.91,6.03c4.37,4.37,7.45,9.12,9.24,14.26c1.79,5.14,2.68,10.64,2.68,16.5
		C983.5,487.67,982.6,493.23,980.79,498.15z M1098.95,519.08c0-1.69,0.02-4.83,0.08-9.42c0.05-4.59,0.07-11.85,0.07-21.79
		c0-3.43-0.03-7.31-0.07-11.66c-0.05-4.34-0.08-7.34-0.08-8.97c-0.1-7.4-1.33-12.59-3.69-15.57s-6.37-4.47-12.03-4.47
		c-2.83,0-6.36,0.78-10.58,2.35c-4.22,1.56-9.68,4.38-16.39,8.45c0.05,0.45,0.12,1.38,0.22,2.79c0.1,1.42,0.15,2.67,0.15,3.76
		c0,5.31,0,10.04,0,14.19c0,4.15,0,7.96,0,11.43c0,2.43,0.02,7.09,0.07,13.96c0.05,6.88,0.07,11.86,0.07,14.93h-5.73
		c0-1.94,0.02-6.12,0.07-12.55c0.05-6.43,0.07-12.15,0.07-17.17c0-5.01-0.03-9.59-0.07-13.74c-0.05-4.15-0.07-6.94-0.07-8.38
		c0-3.43-0.32-6.5-0.97-9.24c-0.65-2.73-1.56-4.87-2.76-6.41c-1.04-1.34-2.51-2.41-4.39-3.2c-1.89-0.79-4.32-1.19-7.3-1.19
		c-3.08,0-6.8,0.93-11.17,2.79c-4.37,1.86-9.61,4.78-15.71,8.75c0,0.89,0,3.96,0,9.2c0,5.24,0,10.32,0,15.23
		c0,5.41,0.02,12.09,0.07,20.04c0.05,7.95,0.07,13.23,0.07,15.86h-5.73c0-1.74,0.02-5.11,0.07-10.13
		c0.05-5.01,0.07-14.15,0.07-27.41c0-5.36-0.01-11.27-0.04-17.73c-0.03-6.45-0.06-13.11-0.11-19.96h5.66l-0.07,9.83l0.22,0.15
		c5.91-3.77,11.17-6.65,15.79-8.64c4.62-1.99,8.81-2.98,12.59-2.98c4.62,0,8.45,1.12,11.51,3.35s5.15,4.92,6.29,8.04h0.3
		c5.01-3.23,10.24-5.93,15.68-8.12c5.44-2.18,10.04-3.28,13.82-3.28c6.65,0,11.59,2.01,14.82,6.03c3.23,4.02,4.84,9.46,4.84,16.31
		c0,5.81-0.01,10.6-0.04,14.38c-0.03,3.77-0.04,7.03-0.04,9.76c0,2.93,0.02,8.06,0.07,15.38c0.05,7.33,0.07,12.33,0.07,15.01
		H1098.95z"/>
	<path class="st0" d="M670.09,453.68c-2.38-2.38-5.11-4.15-8.19-5.29c-3.08-1.14-6.28-1.71-9.61-1.71c-3.87,0-7.31,0.57-10.32,1.71
		c-3,1.14-5.95,3.25-8.83,6.33c-3.13,3.38-5.47,7.25-7.04,11.62c-1.56,4.37-2.35,9.43-2.35,15.19c0,6.41,0.97,11.93,2.9,16.57
		c1.94,4.64,4.74,8.63,8.42,11.95c2.09,1.94,4.63,3.44,7.63,4.51c3,1.07,6.14,1.6,9.42,1.6c3.33,0,6.62-0.61,9.87-1.83
		c3.25-1.22,6.07-3.07,8.45-5.55c3.33-3.43,5.83-7.38,7.52-11.88c1.69-4.49,2.53-9.59,2.53-15.3c0-6.26-0.91-11.64-2.72-16.16
		C675.99,460.93,673.42,457.01,670.09,453.68z"/>
	<path class="st0" d="M968.8,455.16c-2.6,4.04-5.46,8.49-8.6,13.39c-3.43,5.34-6.48,10.09-9.16,14.26
		c-3.38,5.26-6.72,10.55-10.02,15.86c-2.86,4.6-5.39,8.68-7.6,12.23c1.89,1.53,4.08,2.77,6.63,3.67c3,1.07,6.14,1.6,9.42,1.6
		c3.33,0,6.62-0.61,9.87-1.83c3.25-1.22,6.07-3.07,8.45-5.55c3.33-3.43,5.83-7.38,7.52-11.88c1.69-4.49,2.53-9.59,2.53-15.3
		c0-6.26-0.91-11.64-2.72-16.16C973.57,461.58,971.46,458.15,968.8,455.16z"/>
</g>
</svg>
